#!OML:ASF E:\id_vita\Project 1\Capture day 1\Session 1\Female.ASF
:FULLY-SPECIFIED
:DEGREES
443
root 35.8696 16.3598 -0.656983 686.617 83.7486 674.235
lowerback -15.6108 2.91345 -0.292946
upperback -2.11472 3.96124 0.718812
thorax 6.41163 1.96518 1.75518
lowerneck 1.46716 -0.883532 -3.79181
upperneck 21.312 -1.42628 6.72586
head 6.26593 -0.186368 2.76599
rclavicle -6.4605e-016 -1.19271e-014
rhumerus -17.5883 -12.0502 -87.3558
rradius 32.6182
rwrist -1.02668
rhand -19.6022 5.519
rfingers 7.12502
rthumb 6.72385 -24.3542
lclavicle -6.4605e-016 -1.19271e-014
lhumerus -121.627 34.1902 -46.2063
lradius 12.4944
lwrist -122.729
lhand -6.45951 23.9525
lfingers 7.12502
lthumb 19.3906 53.0057
rfemur -1.87774 8.72338 29.8276
rtibia 18.0124
rfoot -14.7666 -4.45619
rtoes -11.5239
lfemur -43.8369 -18.9663 -0.803506
ltibia 16.3128
lfoot -12.0806 28.2274
ltoes -6.89085
444
root 36.0256 16.3319 -0.672964 689.321 83.3862 676.67
lowerback -15.3182 3.00567 -0.225222
upperback -2.68471 4.09589 0.664394
thorax 5.64978 2.05412 1.64551
lowerneck 1.59309 -0.822888 -3.76301
upperneck 21.7632 -1.35286 6.8516
head 6.38472 -0.122111 2.8149
rclavicle 6.07194e-014 3.18055e-015
rhumerus -18.2408 -11.537 -87.615
rradius 33.2474
rwrist -1.51852
rhand -19.3659 5.9665
rfingers 7.12502
rthumb 6.95195 -23.8993
lclavicle 6.07194e-014 3.18055e-015
lhumerus -121.508 32.8445 -47.2828
lradius 12.6201
lwrist -123.48
lhand -6.33143 24.2477
lfingers 7.12502
lthumb 19.5137 53.2884
rfemur -1.49478 8.88488 29.7264
rtibia 17.858
rfoot -15.0432 -4.17303
rtoes -11.1514
lfemur -44.4334 -20.0369 0.635148
ltibia 15.5541
lfoot -11.3852 29.9325
ltoes -7.27468
445
root 36.1829 16.302 -0.689106 691.089 83.035 678.154
lowerback -15.8803 3.12684 -0.16922
upperback -2.60156 4.24308 0.703053
thorax 6.04188 2.12118 1.72421
lowerneck 1.11791 -0.761762 -3.64248
upperneck 21.827 -1.27174 6.78527
head 6.48177 -0.075677 2.77763
rclavicle 8.44214e-015 -2.38542e-015
rhumerus -17.7211 -11.1265 -87.8666
rradius 33.6357
rwrist -1.73542
rhand -19.2318 6.10084
rfingers 7.12502
rthumb 7.08142 -23.7607
lclavicle 8.44214e-015 -2.38542e-015
lhumerus -123.437 31.2491 -50.748
lradius 12.9362
lwrist -126.705
lhand -6.78968 24.0918
lfingers 7.12502
lthumb 19.0731 53.1766
rfemur -1.15022 8.85152 29.6788
rtibia 17.7711
rfoot -15.3821 -3.96039
rtoes -11.9721
lfemur -44.7945 -20.3234 1.49518
ltibia 14.8376
lfoot -11.7148 30.5859
ltoes -5.25523
446
root 36.3411 16.2704 -0.703316 692.648 82.6926 679.588
lowerback -16.202 3.28876 -0.119688
upperback -2.53546 4.44502 0.728612
thorax 6.28422 2.21649 1.78992
lowerneck 0.946134 -0.862338 -4.02176
upperneck 21.6936 -1.44487 7.04605
head 6.48045 -0.174918 2.91588
rclavicle -1.77229e-014 -2.78299e-015
rhumerus -17.3788 -11.0208 -88.032
rradius 34.031
rwrist -1.58371
rhand -19.3288 5.96152
rfingers 7.12502
rthumb 6.98773 -23.9031
lclavicle -1.77229e-014 -2.78299e-015
lhumerus -123.95 30.7235 -51.7842
lradius 13.097
lwrist -127.405
lhand -6.70223 24.4242
lfingers 7.12502
lthumb 19.1572 53.5007
rfemur -0.646982 8.7503 29.633
rtibia 17.7162
rfoot -15.6542 -3.78696
rtoes -12.8749
lfemur -44.94 -20.6914 2.25637
ltibia 14.1931
lfoot -12.1798 31.2011
ltoes -3.22954
447
root 36.5064 16.2417 -0.71679 695.279 82.3356 682.122
lowerback -16.2889 3.45154 -0.140791
upperback -2.6862 4.67436 0.648705
thorax 6.16971 2.33327 1.76464
lowerneck 0.888652 -0.881923 -4.26522
upperneck 21.7728 -1.51685 7.37624
head 6.5217 -0.200601 3.06358
rclavicle 3.08427e-015 -5.56597e-015
rhumerus -17.4778 -10.8132 -88.2795
rradius 34.305
rwrist -1.62434
rhand -19.5348 6.00778
rfingers 7.12502
rthumb 6.78892 -23.8634
lclavicle 3.08427e-015 -5.56597e-015
lhumerus -124.102 29.9512 -52.814
lradius 13.2005
lwrist -128.231
lhand -6.83649 24.6161
lfingers 7.12502
lthumb 19.0281 53.7053
rfemur -0.0683211 8.84529 29.4416
rtibia 17.6354
rfoot -15.7151 -3.58402
rtoes -13.0506
lfemur -44.9455 -21.0324 2.80129
ltibia 13.7123
lfoot -12.0152 31.7509
ltoes -2.95125
448
root 36.6757 16.2169 -0.730236 697.41 81.8927 684.167
lowerback -16.4953 3.60041 -0.139064
upperback -2.77431 4.87592 0.619609
thorax 6.18528 2.43366 1.78633
lowerneck 1.10969 -0.695549 -3.71432
upperneck 21.716 -1.19554 6.87605
head 6.44318 -0.0413713 2.82101
rclavicle -4.01949e-014 -1.07344e-014
rhumerus -17.449 -10.5056 -88.5514
rradius 34.3884
rwrist -1.78351
rhand -19.745 6.27876
rfingers 7.12502
rthumb 6.58602 -23.5988
lclavicle -4.01949e-014 -1.07344e-014
lhumerus -124.559 29.0705 -54.1381
lradius 13.3749
lwrist -129.348
lhand -7.18783 24.7572
lfingers 7.12502
lthumb 18.6902 53.8793
rfemur 0.604677 8.98616 29.2951
rtibia 17.4845
rfoot -15.7456 -3.40003
rtoes -13.8635
lfemur -44.9384 -21.351 3.35265
ltibia 13.487
lfoot -11.6816 32.3189
ltoes -2.74778
449
root 36.8495 16.1951 -0.74096 700.161 81.4807 686.719
lowerback -16.9195 3.71397 -0.357236
upperback -2.86355 5.06876 0.624647
thorax 6.2957 2.52402 1.98237
lowerneck 1.04719 -0.643635 -3.15374
upperneck 21.8005 -1.03362 6.2047
head 6.4712 0.0338159 2.51663
rclavicle 7.30068e-014 4.37326e-015
rhumerus -17.5462 -10.3318 -88.7241
rradius 34.6381
rwrist -1.81294
rhand -19.7741 6.41236
rfingers 7.12502
rthumb 6.55788 -23.4661
lclavicle 7.30068e-014 4.37326e-015
lhumerus -124.711 28.6744 -54.5374
lradius 13.4928
lwrist -129.242
lhand -7.06565 25.3644
lfingers 7.12502
lthumb 18.8077 54.4751
rfemur 1.14107 9.17147 28.9863
rtibia 17.3446
rfoot -15.7689 -3.06624
rtoes -14.1824
lfemur -44.5699 -20.0476 2.44471
ltibia 13.3676
lfoot -11.5772 30.9411
ltoes -2.90447
450
root 37.0194 16.1703 -0.755712 700.644 81.0293 687.206
lowerback -16.9364 3.85468 -0.191015
upperback -2.98373 5.22588 0.68088
thorax 6.18062 2.60837 1.97826
lowerneck 1.21922 -0.634014 -3.30248
upperneck 21.7035 -1.02036 6.24827
head 6.4101 0.0280384 2.5549
rclavicle 2.55749e-014 2.46493e-014
rhumerus -17.9073 -10.2263 -88.8667
rradius 35.0058
rwrist -1.80043
rhand -19.6552 6.38198
rfingers 7.12502
rthumb 6.67263 -23.4929
lclavicle 2.55749e-014 2.46493e-014
lhumerus -125.234 27.71 -55.9256
lradius 13.6629
lwrist -130.329
lhand -7.2237 25.663
lfingers 7.12502
lthumb 18.6557 54.7885
rfemur 1.87235 9.22912 28.9858
rtibia 17.2159
rfoot -15.7603 -2.54601
rtoes -13.4451
lfemur -43.8715 -18.2967 1.27555
ltibia 13.2738
lfoot -11.2789 28.9364
ltoes -3.9941
451
root 37.1885 16.1458 -0.773787 701.656 80.7224 688.167
lowerback -17.0266 3.93502 -0.116578
upperback -3.0863 5.32322 0.671722
thorax 6.12442 2.6606 1.95003
lowerneck 1.13874 -0.58046 -3.14108
upperneck 21.8756 -0.919598 6.06203
head 6.47408 0.0815485 2.47532
rclavicle 1.04773e-014 3.97569e-015
rhumerus -18.227 -10.0019 -89.0858
rradius 35.342
rwrist -1.83461
rhand -19.5679 6.38342
rfingers 7.12502
rthumb 6.75694 -23.4888
lclavicle 1.04773e-014 3.97569e-015
lhumerus -125.67 26.9834 -57.0392
lradius 13.7952
lwrist -131.041
lhand -7.31087 25.937
lfingers 7.12502
lthumb 18.5718 55.0705
rfemur 2.49066 9.0003 28.744
rtibia 17.1847
rfoot -15.7442 -1.83734
rtoes -12.4034
lfemur -43.49 -17.2959 0.487102
ltibia 13.2153
lfoot -8.88687 27.8297
ltoes -7.81255
452
root 37.3741 16.1175 -0.790196 703.257 80.4383 689.739
lowerback -17.1599 4.0225 -0.161011
upperback -3.26292 5.45726 0.613934
thorax 6.00531 2.73148 1.94416
lowerneck 1.00267 -0.564092 -3.46891
upperneck 22.0395 -0.982736 6.64096
head 6.55347 0.0753274 2.72017
rclavicle 5.3734e-015 2.78299e-015
rhumerus -18.739 -9.71406 -89.3051
rradius 35.6888
rwrist -2.04733
rhand -19.5363 6.24262
rfingers 7.12502
rthumb 6.78744 -23.6286
lclavicle 5.3734e-015 2.78299e-015
lhumerus -125.26 26.9945 -56.6821
lradius 13.7705
lwrist -130.181
lhand -6.93457 26.5246
lfingers 7.12502
lthumb 18.9337 55.6231
rfemur 3.14865 9.0427 28.444
rtibia 17.1936
rfoot -15.5567 -1.29125
rtoes -11.953
lfemur -43.1973 -16.5996 -0.169264
ltibia 13.3968
lfoot -8.72702 27.1226
ltoes -8.63418
453
root 37.5607 16.0893 -0.81022 704.034 80.1702 690.539
lowerback -17.3791 4.14468 -0.0494654
upperback -3.30342 5.60193 0.578989
thorax 6.09005 2.80387 1.89286
lowerneck 0.710977 -0.604935 -3.52371
upperneck 22.2977 -1.02804 6.59062
head 6.69048 0.0545634 2.71668
rclavicle 1.10729e-014 -2.38542e-015
rhumerus -19.0609 -9.54281 -89.478
rradius 35.9305
rwrist -2.26787
rhand -19.5263 6.03685
rfingers 7.12502
rthumb 6.7971 -23.834
lclavicle 1.10729e-014 -2.38542e-015
lhumerus -125.243 26.8445 -56.8582
lradius 13.7648
lwrist -130.101
lhand -7.02228 26.8223
lfingers 7.12502
lthumb 18.8494 55.929
rfemur 3.82773 9.01745 28.2438
rtibia 17.2358
rfoot -15.4595 -0.790799
rtoes -12.6149
lfemur -42.6342 -15.1716 -1.39822
ltibia 13.7972
lfoot -9.10844 25.2725
ltoes -9.46782
454
root 37.7499 16.064 -0.82335 703.511 79.9389 690.151
lowerback -17.7842 4.18353 0.072773
upperback -3.10363 5.61556 0.673789
thorax 6.52395 2.80096 1.97364
lowerneck 0.50538 -0.583226 -3.70954
upperneck 22.0545 -1.03515 6.78341
head 6.64786 0.0415349 2.80588
rclavicle -6.49591e-014 -3.77691e-014
rhumerus -19.1191 -9.3779 -89.6613
rradius 36.0868
rwrist -2.32785
rhand -19.472 6.13048
rfingers 7.12502
rthumb 6.84952 -23.7387
lclavicle -6.49591e-014 -3.77691e-014
lhumerus -125.889 26.5148 -57.704
lradius 13.7878
lwrist -130.536
lhand -7.15777 26.9871
lfingers 7.12502
lthumb 18.7191 56.1064
rfemur 4.67661 8.87948 28.2768
rtibia 17.1925
rfoot -15.1977 -0.247129
rtoes -12.8233
lfemur -42.0298 -13.5562 -2.70894
ltibia 14.5962
lfoot -8.90952 23.2224
ltoes -11.7725
455
root 37.9476 16.0467 -0.841201 704.234 79.8229 690.965
lowerback -17.5748 4.15931 0.0486235
upperback -3.49302 5.60837 0.620648
thorax 5.99682 2.81441 1.88989
lowerneck 0.960615 -0.479194 -3.98042
upperneck 21.9872 -0.983864 7.42509
head 6.54301 0.0921689 3.06286
rclavicle 2.51649e-014 6.75868e-015
rhumerus -20.1622 -9.28303 -89.8581
rradius 36.2682
rwrist -2.36476
rhand -19.2915 6.2896
rfingers 7.12502
rthumb 7.02375 -23.5739
lclavicle 2.51649e-014 6.75868e-015
lhumerus -125.351 26.1016 -57.6513
lradius 13.7583
lwrist -130.241
lhand -7.07418 27.0964
lfingers 7.12502
lthumb 18.7995 56.2079
rfemur 5.49857 8.67694 28.016
rtibia 17.0967
rfoot -14.7542 0.428865
rtoes -12.5233
lfemur -41.7542 -12.1977 -4.13029
ltibia 15.8048
lfoot -8.04048 21.7881
ltoes -14.0518
